<?xml version="1.0" encoding="UTF-8"?>
<svg id="Layer_2" data-name="Layer 2" xmlns="http://www.w3.org/2000/svg" viewBox="0 0 111.48 50">
  <g id="Layer_1-2" data-name="Layer 1">
    <path d="M111.47,35.07c-.24,8.36-7.48,14.74-15.79,14.74H57.69c-1.74-.01-3.15-1.43-3.14-3.17V5.75c-.07-1.45,.77-2.79,2.1-3.37C56.65,2.39,60.14,0,67.49,0c4.52-.02,8.95,1.2,12.83,3.51,6.11,3.58,10.44,9.55,11.94,16.47,1.31-.38,2.67-.57,4.03-.56,4.11,0,8.04,1.67,10.9,4.61s4.41,6.93,4.28,11.03ZM49.8,8.36c1.15,13.86,1.98,26.5,0,40.33,0,.68-.55,1.23-1.23,1.23s-1.23-.55-1.23-1.23c-1.84-13.7-1.03-26.59,0-40.33,0-.68,.55-1.23,1.23-1.23s1.23,.55,1.23,1.23Zm-7.66,4.77c1.32,12.37,1.72,23.19-.02,35.6-.09,.64-.63,1.11-1.28,1.11s-1.19-.48-1.28-1.11c-1.54-12.23-1.19-23.35,0-35.6,0-.71,.58-1.29,1.29-1.29s1.29,.58,1.29,1.29Zm-7.72-1.19c1.25,12.68,1.81,24.05,0,36.76,0,.68-.55,1.24-1.24,1.24s-1.24-.55-1.24-1.24c-1.77-12.51-1.19-24.23,0-36.76,0-.68,.55-1.24,1.24-1.24s1.24,.55,1.24,1.24Zm-7.65,3.58c1.51,11.03,1.5,22.21-.04,33.24-.06,.65-.61,1.14-1.26,1.14s-1.2-.49-1.26-1.14c-1.42-11.04-1.42-22.21,0-33.24,0-.71,.57-1.28,1.28-1.28s1.28,.57,1.28,1.28h0Zm-7.76,8.22c1.96,8.68,1.06,16.28-.13,25.07,0,.66-.53,1.19-1.19,1.19s-1.19-.53-1.19-1.19c-.98-8.64-1.85-16.51,0-25.07,.06-.65,.61-1.14,1.26-1.14s1.2,.49,1.26,1.14Zm-7.69-1.27c1.8,8.82,1.21,16.32-.05,25.17-.12,1.3-2.39,1.31-2.51,0-1.13-8.74-1.61-16.47-.05-25.17,.09-.65,.64-1.14,1.3-1.14s1.21,.49,1.3,1.14Zm-7.75,4.24c1.86,5.9,1.19,10.66-.12,16.61,0,.66-.53,1.19-1.19,1.19s-1.19-.53-1.19-1.19c-1.12-5.87-1.65-10.75-.11-16.61,.06-.67,.63-1.19,1.31-1.19s1.24,.51,1.31,1.19Z"/>
  </g>
</svg>