<?xml version="1.0" encoding="utf-8"?>
<!-- Generator: Adobe Illustrator 26.5.0, SVG Export Plug-In . SVG Version: 6.00 Build 0)  -->
<svg version="1.1" id="Layer_2_00000000210939058382364580000014927122163278851720_"
	 xmlns="http://www.w3.org/2000/svg" xmlns:xlink="http://www.w3.org/1999/xlink" x="0px" y="0px" viewBox="0 0 111.5 50"
	 style="enable-background:new 0 0 111.5 50;" xml:space="preserve">
<style type="text/css">
	.st0{fill:#FFFFFF;}
</style>
<g id="Layer_1-2">
	<path class="st0" d="M111.5,35.1c-0.2,8.4-7.5,14.7-15.8,14.7h-38c-1.7,0-3.2-1.4-3.1-3.2V5.8c-0.1-1.4,0.8-2.8,2.1-3.4
		c0,0,3.5-2.4,10.8-2.4c4.5,0,8.9,1.2,12.8,3.5c6.1,3.6,10.4,9.6,11.9,16.5c1.3-0.4,2.7-0.6,4-0.6c4.1,0,8,1.7,10.9,4.6
		S111.6,31,111.5,35.1L111.5,35.1z M49.8,8.4c1.2,13.9,2,26.5,0,40.3c0,0.7-0.5,1.2-1.2,1.2s-1.2-0.5-1.2-1.2
		c-1.8-13.7-1-26.6,0-40.3c0-0.7,0.5-1.2,1.2-1.2S49.8,7.7,49.8,8.4z M42.1,13.1c1.3,12.4,1.7,23.2,0,35.6c-0.1,0.6-0.6,1.1-1.3,1.1
		s-1.2-0.5-1.3-1.1c-1.5-12.2-1.2-23.4,0-35.6c0-0.7,0.6-1.3,1.3-1.3S42.1,12.4,42.1,13.1z M34.4,11.9c1.2,12.7,1.8,24,0,36.8
		c0,0.7-0.5,1.2-1.2,1.2s-1.2-0.5-1.2-1.2c-1.8-12.5-1.2-24.2,0-36.8c0-0.7,0.6-1.2,1.2-1.2S34.4,11.2,34.4,11.9z M26.8,15.5
		c1.5,11,1.5,22.2,0,33.2c-0.1,0.7-0.6,1.1-1.3,1.1s-1.2-0.5-1.3-1.1c-1.4-11-1.4-22.2,0-33.2c0-0.7,0.6-1.3,1.3-1.3
		S26.8,14.8,26.8,15.5C26.8,15.5,26.8,15.5,26.8,15.5z M19,23.7c2,8.7,1.1,16.3-0.1,25.1c0,0.7-0.5,1.2-1.2,1.2s-1.2-0.5-1.2-1.2
		c-1-8.6-1.9-16.5,0-25.1c0.1-0.6,0.6-1.1,1.3-1.1S19,23.1,19,23.7L19,23.7z M11.3,22.5c1.8,8.8,1.2,16.3-0.1,25.2
		c-0.1,1.3-2.4,1.3-2.5,0c-1.1-8.7-1.6-16.5-0.1-25.2c0.1-0.6,0.6-1.1,1.3-1.1S11.2,21.8,11.3,22.5L11.3,22.5z M3.6,26.7
		c1.9,5.9,1.2,10.7-0.1,16.6c0,0.7-0.5,1.2-1.2,1.2S1.1,44,1.1,43.3C-0.1,37.5-0.6,32.6,1,26.7C1,26,1.6,25.5,2.3,25.5
		S3.5,26,3.6,26.7L3.6,26.7z"/>
</g>
</svg>
